<svg version="1.1" id="Layer_1" xmlns="http://www.w3.org/2000/svg" xmlns:xlink="http://www.w3.org/1999/xlink" x="0px" y="0px"
	 width="100%" viewBox="0 0 628 1084" enable-background="new 0 0 628 1084" xml:space="preserve">
<path fill="none" opacity="1.000000" stroke="#000000" stroke-linecap="round" stroke-linejoin="round" stroke-width="11.000000"
	d="
M454.500000,1076.500000 
	C456.160614,1069.569458 453.577637,1062.849365 453.452667,1056.000854 
	C453.385681,1052.329346 452.752075,1048.671753 452.517853,1044.998901 
	C452.099731,1038.441528 450.460022,1031.982056 450.159851,1025.492554 
	C449.435333,1009.830200 448.988220,994.067383 447.588287,978.537109 
	C445.359802,953.815369 446.035583,929.158569 446.274689,904.502686 
	C446.403687,891.203918 449.006805,877.931396 452.878571,864.963745 
	C457.845245,848.328857 467.208099,834.080261 476.034546,819.520935 
	C497.595215,783.956665 519.166443,748.396423 541.094788,713.058838 
	C548.315979,701.421875 555.597839,689.824158 562.454224,677.973511 
	C567.645203,669.001404 571.070190,659.306335 572.478760,648.997131 
	C574.071045,637.343018 575.487427,625.665039 577.004578,614.000610 
	C577.980408,606.497437 578.894348,598.983948 580.031433,591.504761 
	C581.048523,584.815369 582.600159,578.200500 583.450012,571.493652 
	C586.006226,551.321777 591.359192,531.635132 593.910706,511.488708 
	C596.430237,491.595551 597.990601,471.612274 597.560669,451.498718 
	C597.203186,434.779663 600.470459,418.477783 605.134338,402.539307 
	C607.504089,394.440765 610.585510,386.604034 610.508362,377.999939 
	C610.438049,370.154175 604.879578,364.506439 597.002625,363.962311 
	C588.499023,363.374908 580.932251,366.207520 574.045349,370.571564 
	C553.640686,383.501373 540.872925,402.229797 533.445984,424.982391 
	C530.025146,435.462372 527.665894,446.084930 525.771484,456.960205 
	C523.540588,469.767303 522.715271,482.743195 520.311707,495.464417 
	C518.983643,502.493378 517.017517,509.468903 515.317505,516.455566 
	C512.116882,529.609558 508.057281,542.571655 503.927002,555.476624 
	C500.795410,565.261230 496.886719,574.794556 493.559021,584.520203 
	C492.327789,588.118713 489.706604,590.272034 486.857849,592.500000 
	C486.833344,592.500000 486.666595,592.502686 486.500000,592.499573 
	C475.676819,592.296204 467.727448,585.506836 458.999664,580.500610 
	C456.668518,579.163452 454.333313,577.833374 452.000000,576.500000 
"/>
<path fill="none" opacity="1.000000" stroke="#000000" stroke-linecap="round" stroke-linejoin="round" stroke-width="11.000000"
	d="
M179.000000,482.000000 
	C169.879623,473.821472 164.987106,463.019836 160.526382,451.989319 
	C157.560211,444.654572 155.198532,437.115356 152.808594,429.560547 
	C148.500839,415.943481 146.548141,401.943115 143.845901,388.029938 
	C141.394485,375.408051 140.849167,362.551239 138.153488,349.967133 
	C136.980637,344.491852 137.600571,338.650543 137.269318,332.984253 
	C136.861053,326.000031 136.325287,318.994324 135.901245,312.005981 
	C135.070709,298.318939 133.861450,284.645813 132.401230,271.010590 
	C131.840958,265.778992 130.449173,260.582153 128.934998,255.519440 
	C126.553925,247.558151 121.760437,241.410889 112.988243,240.632492 
	C103.917694,239.827606 98.266846,245.149765 94.461823,252.981445 
	C90.828049,260.460693 88.721458,268.285461 87.429955,276.488983 
	C84.189766,297.070343 83.679230,317.831329 84.743332,338.487457 
	C85.799400,358.987762 84.742638,379.603973 87.906204,400.014526 
	C88.847412,406.086975 88.382309,412.364594 89.055794,418.493866 
	C90.758568,433.990387 91.857735,449.543671 93.672966,465.038300 
	C94.581200,472.790955 95.599190,480.640839 96.236526,488.480774 
	C96.873032,496.310547 97.549507,504.273071 99.190849,511.959259 
	C100.377647,517.516846 99.081932,523.080200 100.495529,528.501160 
	C102.685234,536.898376 101.741234,545.484314 102.011688,553.999634 
	C102.594673,572.354858 103.252274,590.709229 105.017242,608.998352 
	C105.918854,618.341125 106.869209,627.683167 108.040672,636.994873 
	C109.008324,644.686584 110.293869,652.339600 111.510178,659.998413 
	C112.967056,669.171936 114.375473,678.355957 116.037018,687.493286 
	C117.527885,695.691895 119.251381,703.851074 121.018463,711.995972 
	C123.950600,725.510742 126.781517,739.053650 130.079620,752.480469 
	C132.152344,760.918701 135.287781,769.093750 137.422409,777.519653 
	C139.748260,786.700439 142.892670,795.582336 145.968109,804.510986 
	C150.238281,816.908081 155.131790,829.047791 160.509384,840.995789 
	C167.710358,856.995056 175.743668,872.680420 179.470840,890.006287 
	C181.596497,899.887451 182.673325,909.940430 183.470230,920.002380 
	C185.302826,943.141357 184.676575,966.337769 184.384094,989.498535 
	C184.053589,1015.671570 182.865494,1041.834473 181.958237,1067.998535 
	C181.848083,1071.175781 181.166656,1074.333374 180.749985,1077.500000 
"/>
<path fill="none" opacity="1.000000" stroke="#000000" stroke-linecap="round" stroke-linejoin="round" stroke-width="7.000000"
	d="
M419.000000,545.250000 
	C390.278656,560.564148 367.602692,582.134705 351.502136,610.501221 
	C342.010925,627.223022 334.886169,644.833313 329.823578,663.452026 
	C325.744995,678.451782 324.394073,693.718262 322.360748,708.981445 
	C320.452881,723.302734 322.193054,737.358276 323.507599,751.499268 
	C325.049896,768.090637 329.319794,784.095276 336.658966,798.921326 
	C347.537750,820.897949 364.092651,837.458130 386.967804,847.324646 
	C393.643463,850.204041 400.748444,851.494141 407.535553,853.899658 
	C408.615112,854.282227 410.166656,853.333313 411.500000,852.999939 
"/>
<path fill="none" opacity="1.000000" stroke="#000000" stroke-linecap="round" stroke-linejoin="round" stroke-width="11.000000"
	d="
M485.000000,591.500000 
	C478.343536,575.562744 474.100250,558.956970 470.955902,542.008179 
	C468.305481,527.721558 465.978821,513.398804 463.817047,499.027527 
	C461.813324,485.706512 460.235107,472.343536 458.587860,458.989166 
	C457.608337,451.048309 457.310608,443.006470 457.037537,434.998718 
	C456.372070,415.487549 457.467804,395.992493 458.106812,376.503510 
	C458.440155,366.336853 458.861603,356.175751 459.084198,346.001831 
	C459.239258,338.914276 458.299377,331.948639 457.295105,325.029755 
	C456.905823,322.347626 457.606506,320.006287 457.570312,317.498993 
	C457.326813,300.614655 456.183289,283.794708 454.519226,266.998108 
	C453.579102,257.508667 453.726440,247.813293 451.788727,238.544159 
	C448.947174,224.951294 449.155762,211.087128 446.711731,197.462021 
	C444.694031,186.213806 443.741455,174.726669 441.414215,163.517807 
	C437.936462,146.767700 434.216400,130.112183 421.068817,117.428673 
	C411.277222,107.982674 391.179871,110.044197 385.032745,124.014412 
	C381.474121,132.101852 379.667480,140.725403 379.588928,149.500793 
	C379.444214,165.664673 379.416290,181.851181 380.107208,197.995407 
	C380.941711,217.494598 380.918854,237.019470 381.777832,256.487732 
	C382.558441,274.179138 382.593536,291.844055 382.362152,309.498199 
	C382.016846,335.843170 381.375244,362.197235 379.537415,388.502625 
	C378.690002,400.631561 378.112335,412.770813 374.498016,424.499390 
	C373.393219,428.084351 372.055878,431.517517 369.008789,434.010742 
	C364.621124,437.600769 361.198853,437.253082 357.479156,433.018311 
	C352.901520,427.806793 352.782837,421.336853 351.983124,415.002136 
	C349.740143,397.235107 349.746521,379.345154 348.692017,361.518219 
	C348.100983,351.526031 349.193207,341.398560 347.000793,331.499817 
	C345.610596,325.222870 346.721100,318.753357 345.852448,312.520569 
	C344.205109,300.700165 344.985870,288.764313 343.723145,277.029785 
	C342.431213,265.023773 342.114471,252.984375 340.911743,241.008865 
	C339.337524,225.334503 337.733582,209.637619 336.380951,193.967117 
	C335.465668,183.363541 334.293671,172.699432 333.801361,162.009140 
	C333.464294,154.689514 332.223236,147.347290 331.424042,140.008270 
	C330.403961,130.640839 328.910248,121.321541 327.480835,112.002937 
	C325.628052,99.923645 323.252380,88.035561 317.571045,76.963547 
	C311.341583,64.823303 301.161804,59.140034 288.030060,62.131889 
	C281.994843,63.506912 277.671997,67.805069 273.891815,72.920036 
	C267.204742,81.968307 265.681519,92.453911 264.594360,103.009720 
	C263.118713,117.337280 264.646637,131.667694 265.386688,146.005844 
	C266.082092,159.478561 265.378113,173.025757 266.140015,186.492081 
	C266.781769,197.834824 266.162445,209.233795 267.234375,220.477661 
	C268.208191,230.692596 266.884247,240.918335 268.150635,250.981049 
	C270.014374,265.790283 269.776428,280.688141 270.647888,295.520691 
	C271.012695,301.729645 271.483948,308.122742 271.261963,314.509094 
	C270.793701,327.977692 271.645935,341.514282 272.195831,354.992004 
	C273.073090,376.492645 274.429535,397.968750 273.963196,419.499207 
	C273.847412,424.845917 272.203339,429.890045 269.437531,434.462219 
	C268.682129,435.710999 267.314087,437.056274 265.976349,437.410736 
	C256.494629,439.923187 248.502487,445.934723 238.548645,447.764648 
	C225.351242,450.190796 212.572464,454.818634 199.454819,457.801270 
	C195.633270,458.670227 191.654022,460.232178 187.500000,459.500000 
"/>
<path fill="none" opacity="1.000000" stroke="#000000" stroke-linecap="round" stroke-linejoin="round" stroke-width="6.000000"
	d="
M341.000000,487.500000 
	C335.671875,498.817780 327.915863,508.528900 319.898499,517.913269 
	C310.383728,529.050354 299.905273,539.441467 287.904327,547.863647 
	C276.221893,556.062317 264.166504,563.759460 251.547195,570.587219 
	C225.016113,584.942139 197.342941,596.559204 169.022675,606.812622 
	C155.058685,611.868347 141.333344,617.583374 127.500015,623.000061 
"/>
<path fill="none" opacity="1.000000" stroke="#000000" stroke-linecap="round" stroke-linejoin="round" stroke-width="7.000000"
	d="
M436.500000,524.000000 
	C427.939087,524.390198 419.991669,527.233948 411.991516,529.975281 
	C390.001831,537.510193 368.857452,546.815796 348.981232,558.969299 
	C329.551666,570.849731 311.207184,584.205872 293.467285,598.459290 
	C283.503906,606.464539 274.216797,615.193542 265.028870,624.030029 
	C249.360245,639.099304 236.215424,656.235474 224.500000,674.500000 
"/>
<path fill="none" opacity="1.000000" stroke="#000000" stroke-linecap="round" stroke-linejoin="round" stroke-width="7.000000"
	d="
M378.500000,880.000000 
	C364.056458,878.181335 349.617371,875.942688 335.004486,877.058777 
	C325.111084,877.814514 315.294373,879.394470 305.461243,880.710388 
	C292.507751,882.443970 280.112305,886.217590 267.564728,889.266357 
	C255.620682,892.168579 243.491241,893.105103 231.460754,894.704895 
	C224.341965,895.651489 216.825577,893.737366 209.507095,892.935242 
	C208.178146,892.789551 206.887543,892.232971 205.500000,892.500000 
"/>
<path fill="none" opacity="1.000000" stroke="#000000" stroke-linecap="round" stroke-linejoin="round" stroke-width="11.000000"
	d="
M259.000000,438.000000 
	C253.736496,429.948792 252.618698,420.758453 251.449478,411.506378 
	C249.642883,397.210663 248.528015,382.863770 247.235855,368.523804 
	C246.486176,360.203857 245.991669,351.787598 244.601532,343.483002 
	C243.723999,338.240753 244.208206,332.778229 243.433701,327.509735 
	C240.433975,307.104675 241.496475,286.367493 238.138718,265.977142 
	C237.199921,260.276245 237.832657,254.336090 237.117310,248.485657 
	C236.146133,240.543274 236.515793,232.425934 235.380188,224.517197 
	C233.638031,212.383972 233.343369,200.138000 232.316299,187.973297 
	C231.461426,177.848083 230.913956,167.650009 229.995026,157.500458 
	C229.118332,147.817703 227.268539,138.062653 221.809799,130.130890 
	C211.847870,115.655846 194.037445,114.812187 182.606476,131.074844 
	C177.546860,138.273071 174.912933,146.809036 173.557678,155.508987 
	C170.721008,173.718521 170.221069,192.105942 169.996231,210.499954 
	C169.849533,222.500198 169.454056,234.501678 169.548935,246.499619 
	C169.697876,265.334412 169.799393,284.182800 170.626389,302.994446 
	C171.197906,315.994507 171.703522,329.048218 172.055573,342.012054 
	C172.477600,357.552429 173.806244,373.012543 174.718903,388.487091 
	C175.489304,401.549774 177.901917,414.544647 180.083557,427.485901 
	C181.837311,437.888855 184.837616,448.096039 186.298752,458.528198 
	C187.093643,464.203522 185.888855,470.170929 185.439758,475.995361 
	C185.372925,476.862091 184.654938,477.829926 183.975784,478.474487 
	C177.817688,484.318634 173.312485,491.853241 165.979599,496.467590 
	C159.282532,500.681793 152.251266,504.255310 145.066116,507.640320 
	C135.355881,512.214966 125.264038,516.182495 116.923622,523.411865 
	C112.457710,527.282898 109.422539,533.068054 103.000000,534.500000 
"/>
<path fill="none" opacity="1.000000" stroke="#000000" stroke-linecap="round" stroke-linejoin="round" stroke-width="6.000000"
	d="
M457.000000,330.500000 
	C432.332916,330.396637 407.661560,330.923981 383.000000,330.000000 
"/>
<path fill="none" opacity="1.000000" stroke="#000000" stroke-linecap="round" stroke-linejoin="round" stroke-width="6.000000"
	d="
M456.000000,322.500000 
	C449.874268,323.817963 444.671387,320.268372 439.025604,319.123718 
	C422.933441,315.861206 406.998505,314.467010 390.974121,319.416229 
	C388.492706,320.182648 385.666656,319.833344 383.000000,320.000031 
"/>
<path fill="none" opacity="1.000000" stroke="#000000" stroke-linecap="round" stroke-linejoin="round" stroke-width="6.000000"
	d="
M344.000000,308.000000 
	C320.176910,308.988525 296.344513,309.533600 272.500000,309.500000 
"/>
<path fill="none" opacity="1.000000" stroke="#000000" stroke-linecap="round" stroke-linejoin="round" stroke-width="6.000000"
	d="
M343.000000,296.500000 
	C336.832825,296.193024 331.037964,293.889709 324.991089,293.065399 
	C316.373901,291.890717 307.837769,291.285492 298.966644,292.162720 
	C289.724884,293.076569 280.834961,296.155701 271.500000,296.000000 
"/>
<path fill="none" opacity="1.000000" stroke="#000000" stroke-linecap="round" stroke-linejoin="round" stroke-width="6.000000"
	d="
M243.000000,341.500000 
	C236.445694,341.899445 230.355606,339.359711 224.021927,338.360931 
	C214.470673,336.854767 204.886444,337.130280 195.536484,338.293335 
	C188.042648,339.225494 180.745895,342.049866 173.000000,342.000000 
"/>
<path fill="none" opacity="1.000000" stroke="#000000" stroke-linecap="round" stroke-linejoin="round" stroke-width="7.000000"
	d="
M335.000000,193.500000 
	C312.559662,196.180618 289.980865,194.187576 267.500000,195.500000 
"/>
<path fill="none" opacity="1.000000" stroke="#000000" stroke-linecap="round" stroke-linejoin="round" stroke-width="6.000000"
	d="
M484.500000,601.000000 
	C481.642548,604.270874 478.045471,601.996094 475.010223,601.821960 
	C465.560974,601.279846 456.636047,603.083130 448.018951,606.547180 
	C436.884644,611.023071 427.112640,617.536926 419.477753,626.981995 
	C418.962219,627.619812 418.814026,628.000000 419.500000,628.500000 
"/>
<path fill="none" opacity="1.000000" stroke="#000000" stroke-linecap="round" stroke-linejoin="round" stroke-width="6.000000"
	d="
M449.000000,228.500000 
	C431.523285,229.778000 414.028259,230.657608 396.500488,230.457642 
	C391.830627,230.404388 387.166656,229.833344 382.500000,229.500000 
"/>
<path fill="none" opacity="1.000000" stroke="#000000" stroke-linecap="round" stroke-linejoin="round" stroke-width="6.000000"
	d="
M235.000000,237.000000 
	C213.504486,237.622360 192.026230,239.358429 170.500000,238.000000 
"/>
<path fill="none" opacity="1.000000" stroke="#000000" stroke-linecap="round" stroke-linejoin="round" stroke-width="6.000000"
	d="
M148.500000,419.000000 
	C139.725632,420.458313 130.826996,420.622406 122.005730,421.554230 
	C113.312820,422.472443 104.670967,423.867096 95.996201,424.970123 
	C94.356056,425.178680 92.666664,425.000000 91.000000,425.000000 
"/>
<path fill="none" opacity="1.000000" stroke="#000000" stroke-linecap="round" stroke-linejoin="round" stroke-width="5.000000"
	d="
M343.500000,425.000000 
	C334.166656,423.378113 324.852936,423.676880 315.492798,424.946930 
	C309.698303,425.733185 303.838318,426.074463 297.997681,426.465454 
	C295.462189,426.635193 292.909058,426.484589 290.500000,427.500000 
"/>
<path fill="none" opacity="1.000000" stroke="#000000" stroke-linecap="round" stroke-linejoin="round" stroke-width="6.000000"
	d="
M137.000000,349.500000 
	C120.305267,349.064423 103.662506,350.362244 87.000763,351.019287 
	C86.661385,351.032623 86.333336,351.333344 86.000008,351.500000 
"/>
<path fill="none" opacity="1.000000" stroke="#000000" stroke-linecap="round" stroke-linejoin="round" stroke-width="8.000000"
	d="
M487.000000,593.000000 
	C487.188507,600.950928 493.124817,606.121399 496.577454,612.457825 
	C502.292542,622.946350 508.499969,633.166687 514.500000,643.500000 
"/>
<path fill="none" opacity="1.000000" stroke="#000000" stroke-linecap="round" stroke-linejoin="round" stroke-width="5.000000"
	d="
M394.500000,427.000000 
	C403.166656,428.666656 411.791748,430.616119 420.514832,431.899109 
	C426.186920,432.733368 431.411499,435.031769 437.000000,436.000000 
"/>
<path fill="none" opacity="1.000000" stroke="#000000" stroke-linecap="round" stroke-linejoin="round" stroke-width="6.000000"
	d="
M244.000000,348.500000 
	C237.075073,349.954987 230.077850,351.099182 223.006042,350.435608 
	C216.117859,349.789246 209.379105,352.710175 202.500000,351.000000 
"/>
<path fill="none" opacity="1.000000" stroke="#000000" stroke-linecap="round" stroke-linejoin="round" stroke-width="6.000000"
	d="
M202.500000,349.500000 
	C202.777328,352.082642 200.886902,351.462982 199.499832,351.491699 
	C190.666840,351.674652 181.833328,351.833344 173.000000,352.000000 
"/>
<path fill="none" opacity="1.000000" stroke="#000000" stroke-linecap="round" stroke-linejoin="round" stroke-width="5.000000"
	d="
M549.500000,507.500000 
	C540.493652,502.554291 531.452148,497.699738 521.000000,496.500000 
"/>
</svg>